<?xml version="1.0" encoding="UTF-8"?>
<svg id="Capa_2" data-name="Capa 2" xmlns="http://www.w3.org/2000/svg" viewBox="0 0 687.25 339.56">
  <defs>
    <style>
      .cls-1, .cls-2 {
        fill: #1d895b;
      }

      .cls-2 {
        fill-rule: evenodd;
      }
    </style>
  </defs>
  <g id="Capa_1-2" data-name="Capa 1">
    <g>
      <g>
        <g>
          <path class="cls-2" d="M142.21,2.5c-39.27,7.98-76.56,33.46-102.35,69.96C24.26,94.55,4.75,132.64.5,188.73c-3.08,40.94,8.33,82.2,29.82,107.7,25.59,30.43,54.67,43.33,97.24,43.13,40.57-.17,64.78-13.13,79.49-22.84,55.14-36.61,72.73-95.33,73.43-97.81l1.71-5.83h-77.2l-1.27,2.32c-.17.27-15.85,28.2-35.84,37.26-21.76,9.9-27.57,9.75-40.26,9.47l-2.08-.04c-28.13-.61-55.82-27.49-53.48-71.41,2.3-43.12,13.92-61.7,25.6-77.02,15.26-19.93,29.34-31.31,59.91-34.38,24.93-2.49,39.85,9.32,46.52,16.6,16.8,18.24,19.26,39.88,19.27,40.09l.39,3.75h72.58l-.24-5.24c-.09-2.58-3.31-63.47-44.77-102.82C224.25,5.97,181.44-5.47,142.21,2.5ZM36.09,289.62c-20.02-23.76-30.65-62.37-27.75-100.77,4.08-53.55,22.6-89.8,37.42-110.77,24.47-34.63,59.9-58.84,97.2-66.43,37.15-7.56,77.62,3.2,103.11,27.41,32.44,30.79,39.96,76.48,41.63,91.34h-57.14c-1.43-7.58-6.17-25.58-20.91-41.6-7.53-8.22-24.35-21.59-52.18-18.81-33.17,3.32-49.12,16.35-65.48,37.7-12.16,15.93-25.37,36.81-27.82,83.08-2.63,49.53,28.75,79.89,60.6,80.59.02,0,2.06.05,2.06.05,12.95.26,20.07.44,43.34-10.12,19.38-8.79,34.28-31.68,38.63-38.94h62.13c-5.64,15.05-24.64,57.98-67.34,86.31-13.88,9.19-36.8,21.42-75.47,21.57-40.39.2-67.92-11.95-92.03-40.63Z"/>
          <path class="cls-2" d="M237.31,120.19h39.62s-6.73-49.06-38.3-74.99c-21.9-17.99-59.15-31.62-97.13-23.91-37.98,7.71-66.02,31.2-89.15,63.97-17.44,24.67-32.08,61.39-35.39,101.42-3.32,40.06,8.75,75.87,27.43,98.07,22.88,27.19,48,36.64,84.05,36.64s55.41-11.36,71.26-21.35c39.06-24.69,56.25-67.29,56.25-67.29h-42.51s-22.11,29.8-42.87,39.21c-22.73,10.32-35.93,10.16-49.57,9.33-10.79-.65-64.63-14.43-65.88-83.54-.78-43.44,15.84-79.24,31.54-98,15.7-18.72,36.56-40.96,76.17-40.96,33.84,0,46.53,15.35,56.66,25.63,11.56,11.65,17.81,35.79,17.81,35.79Z"/>
        </g>
        <g>
          <path class="cls-2" d="M681.57,6.51h-186.22l-61.29,329.81h188.48l16.36-80.08s-97.85.05-108.06.06c1.69-8.41,8.34-41.27,9.5-47.1,7.1,0,109.49.1,109.49.1l12.11-80.22h-106.65c1.52-8.16,7.13-38.59,8.19-44.42h108.08l15.7-78.15h-5.68ZM675.89,15.82c-1.76,8.84-10.72,53.44-11.94,59.54h-108.2l-11.64,63.02h107.02c-1.29,8.58-8.32,55.13-9.31,61.64-7.41-.02-109.08-.11-109.08-.11l-13.26,65.68s97.81-.06,108.04-.06c-1.84,8.93-11.31,55.37-12.56,61.49h-169.73c1.95-10.5,56.5-303.91,57.86-311.2h172.81Z"/>
          <polygon class="cls-2" points="454.93 316.57 606.89 316.57 615.51 275.97 505.03 275.95 522.49 189.46 631.91 189.46 638.38 149.5 530.27 149.5 547.31 65.55 655.44 65.55 663.86 26.06 509.97 26.06 454.93 316.57"/>
        </g>
        <g>
          <polygon class="cls-2" points="273.5 316.57 315.36 316.57 341.04 189.46 450.48 189.46 456.96 149.5 348.8 149.5 363.28 65.55 472.68 65.55 480.65 26.06 328.52 26.06 273.5 316.57"/>
          <path class="cls-2" d="M499.27,6.51h-186.19l-61.29,329.75,80.22.73s24.62-120.76,26.05-127.79c7.09,0,109.49.1,109.49.1l12.11-80.22h-106.64c1.5-8.16,7.13-38.58,8.21-44.42h108.06l15.69-78.15h-5.7ZM493.63,15.82c-1.79,8.84-10.73,53.44-11.97,59.54h-108.17l-11.64,63.02h107.01c-1.28,8.58-8.31,55.13-9.3,61.64-7.42-.02-109.08-.11-109.08-.11,0,0-24.61,120.66-26.04,127.71-6.3-.05-52.62-.48-61.47-.56,1.92-10.4,56.48-303.95,57.84-311.24h172.83Z"/>
        </g>
      </g>
      <path class="cls-1" d="M663.91,316.57c-2.66,0-5.15-.5-7.47-1.51-2.32-1.01-4.35-2.38-6.08-4.11-1.73-1.73-3.1-3.76-4.11-6.08-1.01-2.32-1.51-4.81-1.51-7.47s.5-5.1,1.51-7.42c1.01-2.32,2.38-4.34,4.11-6.06,1.73-1.72,3.76-3.08,6.08-4.09,2.32-1.01,4.81-1.51,7.47-1.51s5.09.5,7.41,1.51c2.32,1.01,4.35,2.37,6.08,4.09,1.73,1.71,3.09,3.73,4.09,6.06,1,2.32,1.49,4.79,1.49,7.42s-.49,5.15-1.49,7.47c-.99,2.32-2.35,4.35-4.09,6.08-1.74,1.73-3.76,3.1-6.08,4.11-2.32,1.01-4.79,1.51-7.41,1.51ZM663.91,314.04c2.32,0,4.46-.43,6.43-1.29,1.97-.86,3.66-2.04,5.07-3.53,1.41-1.49,2.52-3.26,3.33-5.27.81-2.02,1.21-4.21,1.21-6.56s-.4-4.49-1.21-6.51c-.8-2.02-1.92-3.77-3.33-5.25-1.41-1.48-3.1-2.65-5.07-3.51-1.97-.86-4.11-1.29-6.43-1.29s-4.48.43-6.46,1.29c-1.99.86-3.69,2.03-5.12,3.51-1.43,1.48-2.55,3.23-3.36,5.25-.81,2.02-1.22,4.19-1.22,6.51s.41,4.54,1.22,6.56c.8,2.02,1.92,3.78,3.36,5.27,1.43,1.5,3.13,2.67,5.12,3.53,1.98.86,4.14,1.29,6.46,1.29ZM673.45,308.09h-3.13l-6.11-9.84h-4.8v9.84h-2.62v-21.35h9.34c2.83,0,4.8.5,5.9,1.51,1.11,1.01,1.67,2.39,1.67,4.14,0,1.04-.17,1.94-.51,2.67-.33.74-.8,1.34-1.41,1.79-.6.45-1.32.79-2.14,1.01-.83.22-1.71.34-2.65.38l6.46,9.84ZM663.4,296.18h2.43c.88,0,1.69-.1,2.45-.3s1.38-.57,1.87-1.11c.49-.54.73-1.35.73-2.42,0-.84-.16-1.51-.48-1.99-.32-.49-.73-.86-1.24-1.11s-1.08-.42-1.71-.5c-.64-.08-1.28-.13-1.92-.13h-6.11v7.57h3.99Z"/>
    </g>
  </g>
</svg>