<?xml version="1.0" encoding="UTF-8"?><svg id="Capa_1" xmlns="http://www.w3.org/2000/svg" viewBox="0 0 996 178"><defs><style>.cls-1{stroke:#0b3f2d;stroke-miterlimit:10;stroke-width:.5px;}.cls-1,.cls-2{fill:#0b3f2d;}</style></defs><g><path class="cls-2" d="M14.52,66.93c2.44-13.05,3.7-19.75,3.77-20.1,2.4-12.81,8.12-22.47,17.16-29,9.04-6.52,21.69-9.78,37.95-9.78h126.82l-6.43,34.33H72.03c-4.38,0-7.76,.71-10.16,2.13-2.4,1.42-3.79,3.2-4.19,5.34l-2.73,11.56-6.2,33.09-1.5,11.03c-.49,2.61,.15,4.69,1.93,6.23,1.77,1.54,4.91,2.31,9.42,2.31h121.76l-6.33,33.8H47.19c-16.26,0-27.69-3.26-34.28-9.78-6.6-6.52-8.7-16.13-6.32-28.82,.09-.47,1.36-7.23,3.8-20.28l4.13-22.06Z"/><path class="cls-2" d="M360.4,115.32l-6.1,32.56H192.59L218.79,8.05h161.72l-6.07,32.38h-115.75l-4.4,23.48h108.62l-5.3,28.29h-108.62l-4.33,23.13h115.75Z"/><path class="cls-2" d="M374.19,147.88h-1.31L399.08,8.05h143.52c16.26,0,27.72,3.23,34.39,9.7,6.67,6.47,8.83,15.92,6.5,28.38-.07,.36-1.32,7.06-3.77,20.1l-4.37,23.31c-2.47,13.16-3.73,19.92-3.8,20.28-2.33,12.45-8.05,21.91-17.14,28.38-9.09,6.47-21.77,9.7-38.03,9.7h-142.2Zm48.22-33.09h95.12c4.5,0,7.92-.74,10.27-2.22,2.34-1.48,3.73-3.41,4.18-5.78l2.2-11.74,3.1-16.54,3.33-17.79,2.07-11.03c.45-2.37-.23-4.3-2.01-5.78-1.79-1.48-4.93-2.22-9.43-2.22h-95.68l-13.7,73.12h.56Z"/><path class="cls-2" d="M639.8,124.04l-18.16,23.84h-51.03L677.67,8.05h58.91l53.9,139.83h-51.03l-9.04-23.84h-90.61Zm22.33-30.07h57.03l-19.08-50.35-37.95,50.35Z"/><path class="cls-2" d="M806.4,66.93c2.45-13.05,3.7-19.75,3.77-20.1,2.4-12.81,8.12-22.47,17.16-29,9.04-6.52,21.69-9.78,37.95-9.78h126.82l-6.43,34.33h-121.76c-4.38,0-7.76,.71-10.15,2.13-2.4,1.42-3.79,3.2-4.19,5.34l-2.73,11.56-6.2,33.09-1.5,11.03c-.49,2.61,.15,4.69,1.93,6.23,1.77,1.54,4.91,2.31,9.42,2.31h121.76l-6.34,33.8h-126.82c-16.26,0-27.69-3.26-34.28-9.78-6.6-6.52-8.7-16.13-6.33-28.82,.09-.47,1.36-7.23,3.8-20.28l4.13-22.06Z"/></g><g><path class="cls-1" d="M503.09,164.76c0-1.13,.19-2.23,.58-3.32,.39-1.08,.96-2.07,1.7-2.96,.74-.89,1.66-1.6,2.76-2.13,1.09-.53,2.33-.79,3.72-.79,1.65,0,3.05,.38,4.23,1.13,1.17,.75,2.03,1.72,2.59,2.9l-1.43,.88c-.4-.81-.9-1.46-1.51-1.94-.61-.48-1.25-.82-1.94-1.03-.68-.21-1.36-.31-2.04-.31-1.11,0-2.09,.22-2.94,.66-.85,.44-1.56,1.03-2.14,1.77-.58,.74-1.02,1.56-1.31,2.47-.29,.91-.44,1.83-.44,2.77,0,1.02,.17,2,.52,2.94s.83,1.76,1.46,2.48c.62,.72,1.36,1.29,2.2,1.72,.84,.42,1.75,.64,2.74,.64,.69,0,1.4-.12,2.13-.36,.73-.24,1.41-.62,2.04-1.12,.63-.5,1.14-1.15,1.52-1.95l1.51,.78c-.38,.92-.97,1.7-1.77,2.34-.8,.64-1.69,1.13-2.67,1.46-.98,.33-1.94,.49-2.87,.49-1.27,0-2.43-.27-3.48-.82-1.06-.55-1.97-1.27-2.74-2.18-.77-.91-1.37-1.93-1.78-3.07-.42-1.14-.62-2.28-.62-3.45Z"/><path class="cls-1" d="M534.89,172.53v1.61h-12.4v-18.46h12.17v1.61h-10.35v6.66h9.02v1.53h-9.02v7.05h10.58Z"/><path class="cls-1" d="M540.48,159.04v15.11h-1.82v-18.46h1.51l12.12,15.39v-15.37h1.82v18.43h-1.69l-11.93-15.11Z"/><path class="cls-1" d="M572.17,157.3h-6.58v16.85h-1.82v-16.85h-6.58v-1.61h14.98v1.61Z"/><path class="cls-1" d="M575.27,174.14v-18.46h7.8c.8,0,1.53,.17,2.18,.49s1.24,.78,1.73,1.34c.49,.56,.88,1.19,1.14,1.87,.27,.69,.4,1.38,.4,2.09,0,.88-.17,1.72-.51,2.5-.34,.78-.81,1.44-1.43,1.98s-1.34,.89-2.17,1.07l4.52,7.12h-2.05l-4.34-6.81h-5.46v6.81h-1.82Zm1.82-8.42h6.03c.73,0,1.36-.2,1.9-.6,.54-.4,.95-.92,1.25-1.57,.29-.65,.44-1.34,.44-2.07s-.17-1.43-.51-2.07-.79-1.14-1.35-1.53c-.56-.39-1.19-.58-1.88-.58h-5.88v8.42Z"/><path class="cls-1" d="M600.02,174.27c-1.3,0-2.48-.26-3.54-.78-1.06-.52-1.97-1.23-2.73-2.12-.76-.89-1.35-1.9-1.77-3.02-.42-1.12-.62-2.27-.62-3.44s.22-2.41,.65-3.52,1.04-2.11,1.83-2.99c.79-.88,1.71-1.57,2.77-2.08,1.06-.51,2.2-.77,3.43-.77,1.3,0,2.48,.27,3.54,.81,1.06,.54,1.96,1.26,2.72,2.16,.75,.9,1.34,1.91,1.75,3.02s.62,2.24,.62,3.41c0,1.23-.22,2.41-.65,3.52s-1.04,2.12-1.82,2.99c-.78,.88-1.7,1.56-2.76,2.07-1.06,.5-2.2,.75-3.43,.75Zm-6.84-9.36c0,1,.16,1.97,.49,2.9,.33,.93,.8,1.75,1.4,2.47,.61,.72,1.33,1.29,2.17,1.72,.84,.42,1.76,.64,2.77,.64,1.06,0,2.01-.22,2.85-.66,.84-.44,1.56-1.03,2.16-1.77,.6-.74,1.05-1.56,1.37-2.48,.31-.92,.47-1.85,.47-2.81,0-1-.17-1.97-.49-2.89-.33-.92-.8-1.74-1.42-2.47-.62-.73-1.34-1.3-2.17-1.72s-1.75-.62-2.76-.62-1.98,.22-2.82,.65c-.84,.43-1.56,1.02-2.16,1.75-.6,.74-1.06,1.56-1.38,2.48-.32,.92-.48,1.86-.48,2.81Z"/><path class="cls-1" d="M619.42,174.14v-18.46h6.27c1.96,0,3.59,.41,4.9,1.24s2.29,1.93,2.95,3.33c.66,1.4,.99,2.94,.99,4.64,0,1.87-.36,3.5-1.08,4.89-.72,1.39-1.74,2.46-3.07,3.22s-2.89,1.14-4.69,1.14h-6.27Zm13.29-9.26c0-1.47-.27-2.78-.82-3.93-.55-1.14-1.34-2.04-2.38-2.69-1.04-.65-2.31-.97-3.82-.97h-4.45v15.24h4.45c1.52,0,2.81-.34,3.85-1.01,1.04-.68,1.83-1.59,2.37-2.74,.54-1.15,.81-2.45,.81-3.89Z"/><path class="cls-1" d="M650.74,172.53v1.61h-12.4v-18.46h12.17v1.61h-10.35v6.66h9.02v1.53h-9.02v7.05h10.58Z"/><path class="cls-1" d="M666.4,155.68h1.53l7.67,18.46h-1.92l-2.31-5.77h-8.44l-2.31,5.77h-1.95l7.72-18.46Zm4.4,11.26l-3.65-9.13-3.65,9.13h7.29Z"/><path class="cls-1" d="M689.93,157.3h-6.58v16.85h-1.82v-16.85h-6.58v-1.61h14.98v1.61Z"/><path class="cls-1" d="M705.42,172.53v1.61h-12.4v-18.46h12.17v1.61h-10.35v6.66h9.02v1.53h-9.02v7.05h10.58Z"/><path class="cls-1" d="M711.01,159.04v15.11h-1.82v-18.46h1.51l12.12,15.39v-15.37h1.82v18.43h-1.69l-11.93-15.11Z"/><path class="cls-1" d="M728.38,164.76c0-1.13,.2-2.23,.59-3.32,.39-1.08,.96-2.07,1.7-2.96,.74-.89,1.66-1.6,2.76-2.13,1.09-.53,2.33-.79,3.72-.79,1.65,0,3.06,.38,4.23,1.13s2.03,1.72,2.59,2.9l-1.43,.88c-.4-.81-.9-1.46-1.51-1.94-.61-.48-1.25-.82-1.94-1.03-.68-.21-1.37-.31-2.04-.31-1.11,0-2.09,.22-2.94,.66-.85,.44-1.56,1.03-2.14,1.77-.58,.74-1.02,1.56-1.31,2.47-.29,.91-.44,1.83-.44,2.77,0,1.02,.17,2,.52,2.94s.83,1.76,1.46,2.48c.62,.72,1.36,1.29,2.2,1.72,.84,.42,1.75,.64,2.74,.64,.69,0,1.4-.12,2.13-.36,.73-.24,1.41-.62,2.04-1.12,.63-.5,1.14-1.15,1.52-1.95l1.51,.78c-.38,.92-.97,1.7-1.77,2.34-.8,.64-1.69,1.13-2.67,1.46-.98,.33-1.94,.49-2.87,.49-1.27,0-2.43-.27-3.48-.82s-1.97-1.27-2.74-2.18c-.77-.91-1.37-1.93-1.78-3.07-.42-1.14-.62-2.28-.62-3.45Z"/><path class="cls-1" d="M747.78,174.14v-18.46h1.82v18.46h-1.82Z"/><path class="cls-1" d="M762,174.27c-1.3,0-2.48-.26-3.54-.78-1.06-.52-1.97-1.23-2.73-2.12-.76-.89-1.35-1.9-1.77-3.02-.42-1.12-.62-2.27-.62-3.44s.22-2.41,.65-3.52c.43-1.12,1.04-2.11,1.83-2.99,.79-.88,1.71-1.57,2.77-2.08,1.06-.51,2.2-.77,3.43-.77,1.3,0,2.48,.27,3.54,.81,1.06,.54,1.96,1.26,2.72,2.16,.75,.9,1.34,1.91,1.76,3.02s.62,2.24,.62,3.41c0,1.23-.22,2.41-.65,3.52-.43,1.12-1.04,2.12-1.82,2.99-.78,.88-1.7,1.56-2.76,2.07-1.06,.5-2.2,.75-3.43,.75Zm-6.84-9.36c0,1,.17,1.97,.49,2.9,.33,.93,.8,1.75,1.4,2.47,.61,.72,1.33,1.29,2.17,1.72,.84,.42,1.76,.64,2.77,.64,1.06,0,2.01-.22,2.85-.66,.84-.44,1.56-1.03,2.16-1.77s1.05-1.56,1.37-2.48c.31-.92,.47-1.85,.47-2.81,0-1-.17-1.97-.49-2.89-.33-.92-.8-1.74-1.42-2.47-.62-.73-1.34-1.3-2.17-1.72s-1.75-.62-2.76-.62-1.98,.22-2.82,.65c-.84,.43-1.56,1.02-2.16,1.75-.6,.74-1.06,1.56-1.38,2.48-.32,.92-.48,1.86-.48,2.81Zm7.49-11.75l-1.17-.44,1.54-2.42h1.87l-2.24,2.86Z"/><path class="cls-1" d="M776.24,159.04v15.11h-1.82v-18.46h1.51l12.12,15.39v-15.37h1.82v18.43h-1.69l-11.93-15.11Z"/><path class="cls-1" d="M806.72,155.68h1.53l7.67,18.46h-1.92l-2.31-5.77h-8.44l-2.31,5.77h-1.95l7.72-18.46Zm4.4,11.26l-3.65-9.13-3.65,9.13h7.29Z"/><path class="cls-1" d="M823.85,164.76c0-1.13,.2-2.23,.59-3.32,.39-1.08,.96-2.07,1.7-2.96,.74-.89,1.66-1.6,2.76-2.13,1.09-.53,2.33-.79,3.72-.79,1.65,0,3.06,.38,4.23,1.13s2.03,1.72,2.59,2.9l-1.43,.88c-.4-.81-.9-1.46-1.51-1.94-.61-.48-1.25-.82-1.94-1.03-.68-.21-1.37-.31-2.04-.31-1.11,0-2.09,.22-2.94,.66-.85,.44-1.56,1.03-2.14,1.77-.58,.74-1.02,1.56-1.31,2.47-.29,.91-.44,1.83-.44,2.77,0,1.02,.17,2,.52,2.94s.83,1.76,1.46,2.48c.62,.72,1.36,1.29,2.2,1.72,.84,.42,1.75,.64,2.74,.64,.69,0,1.4-.12,2.13-.36,.73-.24,1.41-.62,2.04-1.12,.63-.5,1.14-1.15,1.52-1.95l1.51,.78c-.38,.92-.97,1.7-1.77,2.34-.8,.64-1.69,1.13-2.67,1.46-.98,.33-1.94,.49-2.87,.49-1.27,0-2.43-.27-3.48-.82s-1.97-1.27-2.74-2.18c-.77-.91-1.37-1.93-1.78-3.07-.42-1.14-.62-2.28-.62-3.45Z"/><path class="cls-1" d="M843.25,174.14v-18.46h1.82v16.85h10.66v1.61h-12.48Z"/><path class="cls-1" d="M858.74,174.14v-18.46h1.82v18.46h-1.82Z"/><path class="cls-1" d="M877.93,172.53v1.61h-12.4v-18.46h12.17v1.61h-10.35v6.66h9.02v1.53h-9.02v7.05h10.58Z"/><path class="cls-1" d="M883.52,159.04v15.11h-1.82v-18.46h1.51l12.12,15.39v-15.37h1.82v18.43h-1.69l-11.93-15.11Z"/><path class="cls-1" d="M915.21,157.3h-6.58v16.85h-1.82v-16.85h-6.58v-1.61h14.98v1.61Z"/><path class="cls-1" d="M930.71,172.53v1.61h-12.4v-18.46h12.17v1.61h-10.35v6.66h9.02v1.53h-9.02v7.05h10.58Z"/><path class="cls-1" d="M945.16,159.14c-.26-.29-.56-.56-.91-.79-.35-.23-.74-.44-1.17-.61-.43-.17-.9-.31-1.39-.42-.49-.1-1.02-.16-1.57-.16-1.61,0-2.79,.31-3.55,.92-.75,.61-1.13,1.45-1.13,2.5,0,.73,.18,1.3,.53,1.71,.35,.42,.91,.75,1.68,1.01s1.73,.53,2.91,.8c1.32,.28,2.45,.61,3.41,.99s1.69,.9,2.21,1.54c.52,.65,.78,1.53,.78,2.63,0,.85-.17,1.58-.49,2.21-.33,.62-.79,1.14-1.38,1.56-.59,.42-1.29,.72-2.11,.92-.81,.2-1.71,.3-2.68,.3s-1.87-.1-2.74-.3c-.88-.2-1.7-.49-2.48-.88-.78-.39-1.51-.89-2.18-1.5l.91-1.48c.33,.35,.72,.67,1.18,.97,.46,.3,.97,.58,1.53,.82,.56,.24,1.17,.43,1.82,.56s1.32,.2,2.01,.2c1.47,0,2.62-.27,3.44-.8,.82-.54,1.24-1.33,1.24-2.39,0-.76-.21-1.37-.62-1.83-.42-.46-1.04-.84-1.87-1.13s-1.86-.58-3.07-.86c-1.28-.29-2.37-.62-3.25-.99-.88-.36-1.55-.84-1.99-1.44-.44-.6-.66-1.39-.66-2.38,0-1.14,.28-2.11,.85-2.9,.56-.79,1.34-1.38,2.33-1.79,.99-.41,2.12-.61,3.41-.61,.81,0,1.57,.08,2.28,.25,.7,.17,1.35,.4,1.95,.71,.6,.31,1.16,.7,1.68,1.17l-.88,1.46Z"/></g></svg>